<?xml version="1.0" encoding="utf-8"?>
<!-- Generator: Adobe Illustrator 23.0.3, SVG Export Plug-In . SVG Version: 6.00 Build 0)  -->
<svg version="1.1" id="Layer_1" xmlns="http://www.w3.org/2000/svg" xmlns:xlink="http://www.w3.org/1999/xlink" x="0px" y="0px"
	 width="400px" height="400px" viewBox="0 0 400 400" style="enable-background:new 0 0 400 400;" xml:space="preserve">
<style type="text/css">
	.st0{fill:#EFEFEF;}
	.st1{fill:#F0BC5E;}
	.st2{fill:none;stroke:#000000;stroke-width:5.5;stroke-miterlimit:10;}
</style>
<text transform="matrix(1 0 0 1 -274.1623 -451.9416)" style="font-family:'MyriadPro-Regular'; font-size:54.7051px;">12x24</text>
<text transform="matrix(1 0 0 1 -274.1623 -26.6898)" style="font-family:'MyriadPro-Regular'; font-size:54.7051px;">12x36</text>
<text transform="matrix(1 0 0 1 -57.9382 -444.4583)" style="font-family:'MyriadPro-Regular'; font-size:54.7051px;">12x18</text>
<g>
	<path class="st0" d="M-123.8,400h-133v-20.4l15.2-0.3l-0.1-12l-15.2-0.3v-10.8l15-0.1v-12l-15-0.1v-55.1c0,0,14.7,1.1,14.7-11.3
		c0-12.4-14.7-13.8-14.7-13.8V161.8c0,0,14.9,2.2,14.9-5.5s-14.9-7.2-14.9-7.2v-10.6c0,0,14.6,3.2,15.2-5.6
		c0.6-8.8-15.2-6.8-15.2-6.8V69.6c0,0,14.9,2,14.9-10.8s-14.9-11.1-14.9-11.1V0h133v46.6c0,0-14.4-0.4-14.4,12.3
		s14.4,11.8,14.4,11.8v20.6l-15,0V103h15v11.2l-15,0.2V127l15,0.3v136.5c0,0-14.5,1.7-14.5,12.6s14.5,11.8,14.5,11.8v19.9
		c0,0-14.2-1.2-14.9,6.5c-0.7,7.7,14.9,6.6,14.9,6.6V332c0,0-14.8-1.5-14.8,6.4c0,7.8,14.8,6.5,14.8,6.5V400z"/>
	<g>
		<g>
			<g>
				<g>
					<path class="st1" d="M-162.3,123.6h-53.2V58.8h53.2V123.6z"/>
				</g>
				<g>
					<path d="M-203.6,111.8h29.5V70.6h-29.5V111.8z M-197.7,76.5h17.7v29.4h-17.7V76.5z"/>
					<path d="M-126.8,50h3V0h-133v50h3c4.9,0,8.9,4,8.9,8.8s-4,8.8-8.9,8.8h-3v61.8h11.8v5.9h-11.8V153h11.8v5.9h-11.8v48.8h133
						v-84.1h-11.8v-5.9h11.8V100h-11.8v-5.9h11.8V67.7h-3c-4.9,0-8.9-4-8.9-8.8S-131.7,50-126.8,50z M-239.1,5.9h5.9v11.8h-5.9V5.9z
						 M-227.3,5.9h5.9v11.8h-5.9V5.9z M-215.4,5.9h5.9v11.8h-5.9V5.9z M-203.6,5.9h5.9v11.8h-5.9V5.9z M-141.6,201.8h-3v-37h3V201.8
						z M-150.4,201.8h-5.9v-37h5.9V201.8z M-162.3,201.8h-5.9v-37h5.9V201.8z M-174.1,201.8h-5.9v-37h5.9V201.8z M-129.8,73.3v15
						h-11.8v17.7h11.8v5.9h-11.8v17.7h11.8v72.3h-5.9v-42.9h-50.2v42.9h-41.4v-37h23.6v-5.9h-5.9v-23.5h-17.7v-23.5h-5.9v29.4h17.7
						v17.7h-17.7v42.9h-17.7v-37h11.8v-17.7h-11.8v-5.9h11.8v-17.7h-11.8V73.3c6.7-1.4,11.8-7.3,11.8-14.4s-5.1-13-11.8-14.4V5.9
						h5.9v17.7h53.2V5.9h41.4v11.8h-23.6v5.9h5.9v23.5h17.7v23.5h5.9V41.2h-17.7V23.5h17.7V5.9h14.8v38.5
						c-6.7,1.4-11.8,7.3-11.8,14.4S-136.5,71.9-129.8,73.3z"/>
					<rect x="-203.6" y="117.7" width="5.9" height="11.8"/>
					<rect x="-191.8" y="117.7" width="5.9" height="11.8"/>
					<rect x="-180" y="117.7" width="5.9" height="11.8"/>
					<rect x="-203.6" y="53" width="5.9" height="11.8"/>
					<rect x="-191.8" y="53" width="5.9" height="11.8"/>
					<rect x="-180" y="53" width="5.9" height="11.8"/>
					<rect x="-221.4" y="100" width="11.8" height="5.9"/>
					<rect x="-221.4" y="88.3" width="11.8" height="5.9"/>
					<rect x="-221.4" y="76.5" width="11.8" height="5.9"/>
					<rect x="-168.2" y="100" width="11.8" height="5.9"/>
					<rect x="-168.2" y="88.3" width="11.8" height="5.9"/>
					<rect x="-168.2" y="76.5" width="11.8" height="5.9"/>
					<rect x="-185.9" y="17.7" width="5.9" height="5.9"/>
					<rect x="-233.2" y="100" width="5.9" height="5.9"/>
					<rect x="-150.4" y="76.5" width="5.9" height="5.9"/>
					<rect x="-197.7" y="158.9" width="5.9" height="5.9"/>
				</g>
			</g>
		</g>
		<g>
			<g>
				<g>
					<path class="st1" d="M-162.3,341.2h-53.2v-64.7h53.2V341.2z"/>
				</g>
				<g>
					<path d="M-203.6,329.4h29.5v-41.2h-29.5V329.4z M-197.7,294.1h17.7v29.4h-17.7V294.1z"/>
					<path d="M-126.8,267.6h3v-65.9h-133v65.9h3c4.9,0,8.9,4,8.9,8.8s-4,8.8-8.9,8.8h-3V347h11.8v5.9h-11.8v17.7h11.8v5.9h-11.8V400
						h133v-58.8h-11.8v-5.9h11.8v-17.7h-11.8v-5.9h11.8v-26.5h-3c-4.9,0-8.9-4-8.9-8.8S-131.7,267.6-126.8,267.6z M-239.1,207.6h5.9
						v27.6h-5.9V207.6z M-227.3,207.6h5.9v27.6h-5.9V207.6z M-215.4,207.6h5.9v27.6h-5.9V207.6z M-203.6,207.6h5.9v27.6h-5.9V207.6z
						 M-141.6,394.1h-3v-11.8h3V394.1z M-150.4,394.1h-5.9v-11.8h5.9V394.1z M-162.3,394.1h-5.9v-11.8h5.9V394.1z M-174.1,394.1
						h-5.9v-11.8h5.9V394.1z M-129.8,290.8v15h-11.8v17.7h11.8v5.9h-11.8V347h11.8v47.1h-5.9v-17.7h-50.2v17.7h-41.4v-11.8h23.6
						v-5.9h-5.9v-23.5h-17.7v-23.5h-5.9v29.4h17.7v17.7h-17.7v17.7h-17.7v-11.8h11.8v-17.7h-11.8v-5.9h11.8v-17.7h-11.8v-50.3
						c6.7-1.4,11.8-7.3,11.8-14.4c0-7.1-5.1-13-11.8-14.4v-54.4h5.9v33.5h53.2v-33.5h41.4v27.6h-23.6v5.9h5.9v23.5h17.7v23.5h5.9
						v-29.4h-17.7v-17.7h17.7v-33.5h14.8V262c-6.7,1.4-11.8,7.3-11.8,14.4C-141.6,283.5-136.5,289.5-129.8,290.8z"/>
					<rect x="-203.6" y="335.3" width="5.9" height="11.8"/>
					<rect x="-191.8" y="335.3" width="5.9" height="11.8"/>
					<rect x="-180" y="335.3" width="5.9" height="11.8"/>
					<rect x="-203.6" y="270.6" width="5.9" height="11.8"/>
					<rect x="-191.8" y="270.6" width="5.9" height="11.8"/>
					<rect x="-180" y="270.6" width="5.9" height="11.8"/>
					<rect x="-221.4" y="317.6" width="11.8" height="5.9"/>
					<rect x="-221.4" y="305.9" width="11.8" height="5.9"/>
					<rect x="-221.4" y="294.1" width="11.8" height="5.9"/>
					<rect x="-168.2" y="317.6" width="11.8" height="5.9"/>
					<rect x="-168.2" y="305.9" width="11.8" height="5.9"/>
					<rect x="-168.2" y="294.1" width="11.8" height="5.9"/>
					<rect x="-185.9" y="235.2" width="5.9" height="5.9"/>
					<rect x="-233.2" y="317.6" width="5.9" height="5.9"/>
					<rect x="-150.4" y="294.1" width="5.9" height="5.9"/>
					<rect x="-197.7" y="376.5" width="5.9" height="5.9"/>
				</g>
			</g>
		</g>
	</g>
</g>
<g>
	<path class="st0" d="M-264.3-166.8v-101.9c0,0,14.2,2.2,14.2-5.5c0-7.6-14.2-7.2-14.2-7.2v-10.6c0,0,14,3.2,14.6-5.6
		c0.6-8.8-14.6-6.8-14.6-6.8v-56.6c0,0,14.2,2,14.2-10.8s-14.2-11.1-14.2-11.1v-47.7h127.1v46.6c0,0-13.8-0.4-13.8,12.3
		s13.8,11.8,13.8,11.8v20.6h-14.4v11.8h14.4v11.2l-14.4,0.2v12.7l14.4,0.3v136.5L-264.3-166.8z"/>
	<g>
		<g>
			<path class="st1" d="M-161.6-219.4h-60.8V-252h60.8V-219.4z"/>
		</g>
		<g>
			<g>
				<g>
					<path class="st1" d="M-174.6-308.6h-52.1v-64.7h52.1V-308.6z"/>
				</g>
				<g>
					<path d="M-215.1-320.4h28.9v-41.2h-28.9V-320.4z M-209.4-355.7h17.4v29.4h-17.4V-355.7z"/>
					<path d="M-137-382.1h2.9v-50h-133.2v50h2.9c4.8,0,8.7,4,8.7,8.8s-3.9,8.8-8.7,8.8h-2.9v61.8h11.6v5.9h-11.6v17.7h11.6v5.9
						h-11.6v107.4h133.2v-142.7h-11.6v-5.9h11.6v-17.7h-11.6v-5.9h11.6v-26.5h-2.9c-4.8,0-8.7-4-8.7-8.8S-141.8-382.1-137-382.1z
						 M-249.9-426.3h5.8v11.8h-5.8V-426.3z M-238.3-426.3h5.8v11.8h-5.8V-426.3z M-226.7-426.3h5.8v11.8h-5.8V-426.3z M-215.1-426.3
						h5.8v11.8h-5.8V-426.3z M-151.5-171.7h-5.8v-15.5h5.8V-171.7z M-163-171.7h-5.8v-15.5h5.8V-171.7z M-174.6-171.7h-5.8v-15.5
						h5.8V-171.7z M-186.2-171.7h-5.8v-15.5h5.8V-171.7z M-139.9-358.9v15h-11.6v17.7h11.6v5.9h-11.6v17.7h11.6v131h-5.8v-21.4
						h-52.1v21.4h-40.5v-95.7h23.2v-5.9h-5.8v-23.5h-17.4v-23.5h-5.8v29.4h17.4v17.7h-17.4v101.6h-17.4v-95.7h11.6v-17.7h-11.6v-5.9
						h11.6v-17.7h-11.6v-50.3c6.6-1.4,11.6-7.3,11.6-14.4c0-7.1-5-13-11.6-14.4v-38.5h5.8v17.7h52.1v-17.7h40.5v11.8h-23.2v5.9h5.8
						v23.5h17.4v23.5h5.8V-391h-17.4v-17.7h17.4v-17.7h17.4v38.5c-6.6,1.4-11.6,7.3-11.6,14.4C-151.5-366.2-146.5-360.3-139.9-358.9
						z"/>
					<rect x="-215.1" y="-314.5" width="5.8" height="11.8"/>
					<rect x="-203.6" y="-314.5" width="5.8" height="11.8"/>
					<rect x="-192" y="-314.5" width="5.8" height="11.8"/>
					<rect x="-215.1" y="-379.2" width="5.8" height="11.8"/>
					<rect x="-203.6" y="-379.2" width="5.8" height="11.8"/>
					<rect x="-192" y="-379.2" width="5.8" height="11.8"/>
					<rect x="-232.5" y="-332.1" width="11.6" height="5.9"/>
					<rect x="-232.5" y="-343.9" width="11.6" height="5.9"/>
					<rect x="-232.5" y="-355.7" width="11.6" height="5.9"/>
					<rect x="-180.4" y="-332.1" width="11.6" height="5.9"/>
					<rect x="-180.4" y="-343.9" width="11.6" height="5.9"/>
					<rect x="-180.4" y="-355.7" width="11.6" height="5.9"/>
					<rect x="-197.8" y="-414.5" width="5.8" height="5.9"/>
					<rect x="-244.1" y="-332.1" width="5.8" height="5.9"/>
					<rect x="-163" y="-355.7" width="5.8" height="5.9"/>
					<rect x="-209.4" y="-273.3" width="5.8" height="5.9"/>
					<rect x="-232.2" y="-204.5" width="5.8" height="5.9"/>
				</g>
			</g>
		</g>
		<g>
			<path d="M-151.3-209.4h-81V-262h81V-209.4z M-226.3-215.4h69V-256h-69V-215.4z"/>
			<rect x="-212.9" y="-259" width="6" height="46.6"/>
			<rect x="-194.1" y="-258.1" width="6" height="45.7"/>
			<rect x="-175.7" y="-258.1" width="6" height="45.7"/>
			<rect x="-229.3" y="-230.6" width="75" height="6"/>
			<rect x="-229.3" y="-246.2" width="75" height="6"/>
		</g>
		<polygon points="-194.9,-178.4 -232.3,-178.4 -232.3,-193.1 -226.3,-193.1 -226.3,-184.4 -194.9,-184.4 		"/>
	</g>
</g>
<g>
	<path class="st0" d="M-48-223.8v-34.7c0,0,14.4,2.1,14.4-5.4c0-7.5-14.4-7-14.4-7v-10.4c0,0,14.2,3.2,14.8-5.5
		c0.6-8.7-14.8-6.7-14.8-6.7v-55.7c0,0,14.4,2,14.4-10.6c0-12.6-14.4-11-14.4-11v-47H80.8v45.8c0,0-14-0.4-14,12.1
		c0,12.5,14,11.6,14,11.6v20.3H66.2v11.6h14.6v11l-14.5,0.2v12.5l14.5,0.3v68.9L-48-223.8z"/>
	<g>
		<g>
			<g>
				<path class="st1" d="M42.5-296.7H-9.6v-64.7h52.1V-296.7z"/>
			</g>
			<g>
				<path d="M2-308.5H31v-41.2H2V-308.5z M7.8-343.8h17.4v29.4H7.8V-343.8z"/>
				<path d="M80.2-370.3h2.9v-50H-50.1v50h2.9c4.8,0,8.7,4,8.7,8.8s-3.9,8.8-8.7,8.8h-2.9v61.8h11.6v5.9h-11.6v17.7h11.6v5.9h-11.6
					v41H83.1v-76.3H71.5v-5.9h11.6v-17.7H71.5v-5.9h11.6v-26.5h-2.9c-4.8,0-8.7-4-8.7-8.8S75.4-370.3,80.2-370.3z M-32.7-414.4h5.8
					v11.8h-5.8V-414.4z M-21.1-414.4h5.8v11.8h-5.8V-414.4z M-9.6-414.4h5.8v11.8h-5.8V-414.4z M2-414.4h5.8v11.8H2V-414.4z
					 M65.7-226.3h-5.8v-29.3h5.8V-226.3z M54.1-226.3h-5.8v-29.3h5.8V-226.3z M42.5-226.3h-5.8v-29.3h5.8V-226.3z M31-226.3h-5.8
					v-29.3H31V-226.3z M77.3-347.1v15H65.7v17.7h11.6v5.9H65.7v17.7h11.6v64.6h-5.8v-35.1H19.4v35.1h-40.5v-29.3H2v-5.9h-5.8V-285
					h-17.4v-23.5h-5.8v29.4h17.4v17.7h-17.4v35.1h-17.4v-29.3h11.6v-17.7h-11.6v-5.9h11.6v-17.7h-11.6v-50.3
					c6.6-1.4,11.6-7.3,11.6-14.4c0-7.1-5-13-11.6-14.4v-38.5h5.8v17.7h52.1v-17.7h40.5v11.8H31v5.9h5.8v23.5h17.4v23.5h5.8v-29.4
					H42.5v-17.7h17.4v-17.7h17.4v38.5c-6.6,1.4-11.6,7.3-11.6,14.4C65.7-354.4,70.7-348.4,77.3-347.1z"/>
				<rect x="2" y="-302.6" width="5.8" height="11.8"/>
				<rect x="13.6" y="-302.6" width="5.8" height="11.8"/>
				<rect x="25.2" y="-302.6" width="5.8" height="11.8"/>
				<rect x="2" y="-367.3" width="5.8" height="11.8"/>
				<rect x="13.6" y="-367.3" width="5.8" height="11.8"/>
				<rect x="25.2" y="-367.3" width="5.8" height="11.8"/>
				<rect x="-15.4" y="-320.3" width="11.6" height="5.9"/>
				<rect x="-15.4" y="-332" width="11.6" height="5.9"/>
				<rect x="-15.4" y="-343.8" width="11.6" height="5.9"/>
				<rect x="36.8" y="-320.3" width="11.6" height="5.9"/>
				<rect x="36.8" y="-332" width="11.6" height="5.9"/>
				<rect x="36.8" y="-343.8" width="11.6" height="5.9"/>
				<rect x="19.4" y="-402.7" width="5.8" height="5.9"/>
				<rect x="-26.9" y="-320.3" width="5.8" height="5.9"/>
				<rect x="54.1" y="-343.8" width="5.8" height="5.9"/>
				<rect x="7.8" y="-261.4" width="5.8" height="5.9"/>
			</g>
		</g>
	</g>
</g>
<g>
	<path class="st0" d="M299.9,335.6H100.1V231.1h14.4l0.5-11.7l-14.9-0.8v-10.4l14.4-0.6v-12.1l-14.4-0.8v-54.8
		c0,0,15.1,0.9,15.1-10.6s-15.1-14.2-15.1-14.2V69.3h199.7v45.5c0,0-14.5,3-14.5,13.3s14.5,13.9,14.5,13.9v16.8l-14.4,1.6l0.5,11.8
		l13.9,0.8v9.7l-14.9,1.1l0.3,11.8l14.6,1V335.6z"/>
	<g>
		<g>
			<g>
				<g>
					<path class="st1" d="M192.8,192.9h-52.1v-64.7h52.1V192.9z"/>
				</g>
				<g>
					<path d="M152.2,181.1h28.9v-41.2h-28.9V181.1z M158,145.8h17.4v29.4H158V145.8z"/>
					<path d="M297,119.3h2.9v-4.5V69.3H100.1v50h2.9c4.8,0,8.7,4,8.7,8.8c0,4.9-3.9,8.8-8.7,8.8h-2.9v61.8h11.5v5.9h-11.5v17.7h11.5
						v5.9h-11.5v107.4h199.7V192.9h-11.5V187h11.5v-17.7h-11.5v-5.9h11.5V142V137H297c-4.8,0-8.7-4-8.7-8.8
						C288.3,123.3,292.2,119.3,297,119.3z M117.5,75.2h5.8V87h-5.8V75.2z M129.1,75.2h5.8V87h-5.8V75.2z M140.7,75.2h5.8V87h-5.8
						V75.2z M152.2,75.2h5.8V87h-5.8V75.2z M215.9,329.7h-5.8v-33.2h5.8V329.7z M204.4,329.7h-5.8v-33.2h5.8V329.7z M192.8,329.7
						H187v-33.2h5.8V329.7z M181.2,329.7h-5.8v-33.2h5.8V329.7z M294.1,142.6v15h-11.5v17.7h11.5v5.9h-11.5v17.7h11.5v131h-72.8
						v-39.1h-51.9v39.1H129v-95.7h23.1v-5.9h-5.8v-23.5H129v-23.5h-5.8v29.4h17.3v17.7h-17.3v101.6h-17.3v-95.7h11.5v-17.7h-11.5
						v-5.9h11.5v-17.7h-11.5v-50.3c6.6-1.4,11.5-7.3,11.5-14.4s-5-13-11.5-14.4V75.2h5.8v17.7h51.9V75.2H204V87h-23.1v5.9h5.8v23.5
						H204v23.5h5.8v-29.4h-17.3V92.9h17.3V75.2h84.3v38.5c-6.6,1.4-11.5,7.3-11.5,14.4S287.5,141.2,294.1,142.6z"/>
					<rect x="152.2" y="187" width="5.8" height="11.8"/>
					<rect x="163.8" y="187" width="5.8" height="11.8"/>
					<rect x="175.4" y="187" width="5.8" height="11.8"/>
					<rect x="152.2" y="122.3" width="5.8" height="11.8"/>
					<rect x="163.8" y="122.3" width="5.8" height="11.8"/>
					<rect x="175.4" y="122.3" width="5.8" height="11.8"/>
					<rect x="134.9" y="169.3" width="11.6" height="5.9"/>
					<rect x="134.9" y="157.6" width="11.6" height="5.9"/>
					<rect x="134.9" y="145.8" width="11.6" height="5.9"/>
					<rect x="187" y="169.3" width="11.6" height="5.9"/>
					<rect x="187" y="157.6" width="11.6" height="5.9"/>
					<rect x="187" y="145.8" width="11.6" height="5.9"/>
					<rect x="169.6" y="87" width="5.8" height="5.9"/>
					<rect x="123.3" y="169.3" width="5.8" height="5.9"/>
					<rect x="204.4" y="145.8" width="5.8" height="5.9"/>
					<rect x="158" y="228.2" width="5.8" height="5.9"/>
				</g>
			</g>
		</g>
		<rect x="235.2" y="274.3" width="5.4" height="55.4"/>
		<rect x="214" y="247.8" transform="matrix(6.123234e-17 -1 1 6.123234e-17 -55.0133 488.3193)" width="5.4" height="47.8"/>
		<rect x="198.8" y="248.4" transform="matrix(-1 -1.224647e-16 1.224647e-16 -1 402.9136 522.7033)" width="5.4" height="26"/>
		<rect x="207.9" y="239.2" transform="matrix(-1.836970e-16 1 -1 -1.836970e-16 461.6052 40.469)" width="5.4" height="23.6"/>
		<rect x="217" y="230.1" width="5.4" height="23.6"/>
		<rect x="182.2" y="269" width="5.3" height="5.4"/>
		<rect x="217" y="219.4" width="5.3" height="5.4"/>
		<g>
			<path class="st1" d="M273.4,157.6v52.5h-55.9v-52.5H273.4z"/>
		</g>
		<path d="M266.4,198.4v-28.9h-41.2v28.9H266.4z M231.1,192.7v-17.4h29.4v17.4H231.1z"/>
		<g>
			<rect x="231.4" y="151.7" width="5.8" height="11.8"/>
			<rect x="242.9" y="151.7" width="5.8" height="11.8"/>
			<rect x="254.5" y="151.7" width="5.8" height="11.8"/>
		</g>
		<g>
			<rect x="231.4" y="204.9" width="5.8" height="11.8"/>
			<rect x="242.9" y="204.9" width="5.8" height="11.8"/>
			<rect x="254.5" y="204.9" width="5.8" height="11.8"/>
		</g>
		<rect x="261.8" y="236" class="st2" width="35.1" height="75.2"/>
		<line class="st2" x1="261.8" y1="261" x2="296.9" y2="261"/>
		<line class="st2" x1="261.8" y1="248.4" x2="296.9" y2="248.4"/>
		<line class="st2" x1="261.8" y1="273.6" x2="296.9" y2="273.6"/>
		<line class="st2" x1="261.8" y1="286.2" x2="296.9" y2="286.2"/>
		<line class="st2" x1="261.8" y1="298.6" x2="296.9" y2="298.6"/>
		<line class="st2" x1="126.2" y1="263.2" x2="150.1" y2="263.2"/>
		<rect x="155.4" y="260.5" width="5.3" height="5.4"/>
	</g>
</g>
</svg>
