<?xml version="1.0" encoding="utf-8"?>
<!-- Generator: Adobe Illustrator 23.0.3, SVG Export Plug-In . SVG Version: 6.00 Build 0)  -->
<svg version="1.1" id="Layer_1" xmlns="http://www.w3.org/2000/svg" xmlns:xlink="http://www.w3.org/1999/xlink" x="0px" y="0px"
	 width="400px" height="400px" viewBox="0 0 400 400" style="enable-background:new 0 0 400 400;" xml:space="preserve">
<style type="text/css">
	.st0{fill:#B01AFF;}
	.st1{fill:#EFEFEF;}
	.st2{fill:#F0BC5E;}
</style>
<text transform="matrix(1 0 0 1 -274.1623 -451.9416)" style="font-family:'MyriadPro-Regular'; font-size:54.7051px;">12x24</text>
<text transform="matrix(1 0 0 1 -274.1623 -26.6898)" style="font-family:'MyriadPro-Regular'; font-size:54.7051px;">12x36</text>
<text transform="matrix(1 0 0 1 1100.0703 151.9478)" style="font-family:'MyriadPro-Regular'; font-size:54.7051px;">12x18</text>
<text transform="matrix(1 0 0 1 1388.5693 85.3687)" style="font-family:'MyriadPro-Regular'; font-size:54.7051px;">18x24</text>
<rect x="1359.7" y="133.2" class="st0" width="199.7" height="266.3"/>
<g>
	<path class="st1" d="M-123.8,400h-133v-20.4l15.2-0.3l-0.1-12l-15.2-0.3v-10.8l15-0.1v-12l-15-0.1v-55.1c0,0,14.7,1.1,14.7-11.3
		c0-12.4-14.7-13.8-14.7-13.8V161.8c0,0,14.9,2.2,14.9-5.5s-14.9-7.2-14.9-7.2v-10.6c0,0,14.6,3.2,15.2-5.6
		c0.6-8.8-15.2-6.8-15.2-6.8V69.6c0,0,14.9,2,14.9-10.8s-14.9-11.1-14.9-11.1V0h133v46.6c0,0-14.4-0.4-14.4,12.3
		s14.4,11.8,14.4,11.8v20.6l-15,0V103h15v11.2l-15,0.2V127l15,0.3v136.5c0,0-14.5,1.7-14.5,12.6s14.5,11.8,14.5,11.8v19.9
		c0,0-14.2-1.2-14.9,6.5c-0.7,7.7,14.9,6.6,14.9,6.6V332c0,0-14.8-1.5-14.8,6.4c0,7.8,14.8,6.5,14.8,6.5V400z"/>
	<g>
		<g>
			<g>
				<g>
					<path class="st2" d="M-162.3,123.6h-53.2V58.8h53.2V123.6z"/>
				</g>
				<g>
					<path d="M-203.6,111.8h29.5V70.6h-29.5V111.8z M-197.7,76.5h17.7v29.4h-17.7V76.5z"/>
					<path d="M-126.8,50h3V0h-133v50h3c4.9,0,8.9,4,8.9,8.8s-4,8.8-8.9,8.8h-3v61.8h11.8v5.9h-11.8V153h11.8v5.9h-11.8v48.8h133
						v-84.1h-11.8v-5.9h11.8V100h-11.8v-5.9h11.8V67.7h-3c-4.9,0-8.9-4-8.9-8.8S-131.7,50-126.8,50z M-239.1,5.9h5.9v11.8h-5.9V5.9z
						 M-227.3,5.9h5.9v11.8h-5.9V5.9z M-215.4,5.9h5.9v11.8h-5.9V5.9z M-203.6,5.9h5.9v11.8h-5.9V5.9z M-141.6,201.8h-3v-37h3V201.8
						z M-150.4,201.8h-5.9v-37h5.9V201.8z M-162.3,201.8h-5.9v-37h5.9V201.8z M-174.1,201.8h-5.9v-37h5.9V201.8z M-129.8,73.3v15
						h-11.8v17.7h11.8v5.9h-11.8v17.7h11.8v72.3h-5.9v-42.9h-50.2v42.9h-41.4v-37h23.6v-5.9h-5.9v-23.5h-17.7v-23.5h-5.9v29.4h17.7
						v17.7h-17.7v42.9h-17.7v-37h11.8v-17.7h-11.8v-5.9h11.8v-17.7h-11.8V73.3c6.7-1.4,11.8-7.3,11.8-14.4s-5.1-13-11.8-14.4V5.9
						h5.9v17.7h53.2V5.9h41.4v11.8h-23.6v5.9h5.9v23.5h17.7v23.5h5.9V41.2h-17.7V23.5h17.7V5.9h14.8v38.5
						c-6.7,1.4-11.8,7.3-11.8,14.4S-136.5,71.9-129.8,73.3z"/>
					<rect x="-203.6" y="117.7" width="5.9" height="11.8"/>
					<rect x="-191.8" y="117.7" width="5.9" height="11.8"/>
					<rect x="-180" y="117.7" width="5.9" height="11.8"/>
					<rect x="-203.6" y="53" width="5.9" height="11.8"/>
					<rect x="-191.8" y="53" width="5.9" height="11.8"/>
					<rect x="-180" y="53" width="5.9" height="11.8"/>
					<rect x="-221.4" y="100" width="11.8" height="5.9"/>
					<rect x="-221.4" y="88.3" width="11.8" height="5.9"/>
					<rect x="-221.4" y="76.5" width="11.8" height="5.9"/>
					<rect x="-168.2" y="100" width="11.8" height="5.9"/>
					<rect x="-168.2" y="88.3" width="11.8" height="5.9"/>
					<rect x="-168.2" y="76.5" width="11.8" height="5.9"/>
					<rect x="-185.9" y="17.7" width="5.9" height="5.9"/>
					<rect x="-233.2" y="100" width="5.9" height="5.9"/>
					<rect x="-150.4" y="76.5" width="5.9" height="5.9"/>
					<rect x="-197.7" y="158.9" width="5.9" height="5.9"/>
				</g>
			</g>
		</g>
		<g>
			<g>
				<g>
					<path class="st2" d="M-162.3,341.2h-53.2v-64.7h53.2V341.2z"/>
				</g>
				<g>
					<path d="M-203.6,329.4h29.5v-41.2h-29.5V329.4z M-197.7,294.1h17.7v29.4h-17.7V294.1z"/>
					<path d="M-126.8,267.6h3v-65.9h-133v65.9h3c4.9,0,8.9,4,8.9,8.8s-4,8.8-8.9,8.8h-3V347h11.8v5.9h-11.8v17.7h11.8v5.9h-11.8V400
						h133v-58.8h-11.8v-5.9h11.8v-17.7h-11.8v-5.9h11.8v-26.5h-3c-4.9,0-8.9-4-8.9-8.8S-131.7,267.6-126.8,267.6z M-239.1,207.6h5.9
						v27.6h-5.9V207.6z M-227.3,207.6h5.9v27.6h-5.9V207.6z M-215.4,207.6h5.9v27.6h-5.9V207.6z M-203.6,207.6h5.9v27.6h-5.9V207.6z
						 M-141.6,394.1h-3v-11.8h3V394.1z M-150.4,394.1h-5.9v-11.8h5.9V394.1z M-162.3,394.1h-5.9v-11.8h5.9V394.1z M-174.1,394.1
						h-5.9v-11.8h5.9V394.1z M-129.8,290.8v15h-11.8v17.7h11.8v5.9h-11.8V347h11.8v47.1h-5.9v-17.7h-50.2v17.7h-41.4v-11.8h23.6
						v-5.9h-5.9v-23.5h-17.7v-23.5h-5.9v29.4h17.7v17.7h-17.7v17.7h-17.7v-11.8h11.8v-17.7h-11.8v-5.9h11.8v-17.7h-11.8v-50.3
						c6.7-1.4,11.8-7.3,11.8-14.4c0-7.1-5.1-13-11.8-14.4v-54.4h5.9v33.5h53.2v-33.5h41.4v27.6h-23.6v5.9h5.9v23.5h17.7v23.5h5.9
						v-29.4h-17.7v-17.7h17.7v-33.5h14.8V262c-6.7,1.4-11.8,7.3-11.8,14.4C-141.6,283.5-136.5,289.5-129.8,290.8z"/>
					<rect x="-203.6" y="335.3" width="5.9" height="11.8"/>
					<rect x="-191.8" y="335.3" width="5.9" height="11.8"/>
					<rect x="-180" y="335.3" width="5.9" height="11.8"/>
					<rect x="-203.6" y="270.6" width="5.9" height="11.8"/>
					<rect x="-191.8" y="270.6" width="5.9" height="11.8"/>
					<rect x="-180" y="270.6" width="5.9" height="11.8"/>
					<rect x="-221.4" y="317.6" width="11.8" height="5.9"/>
					<rect x="-221.4" y="305.9" width="11.8" height="5.9"/>
					<rect x="-221.4" y="294.1" width="11.8" height="5.9"/>
					<rect x="-168.2" y="317.6" width="11.8" height="5.9"/>
					<rect x="-168.2" y="305.9" width="11.8" height="5.9"/>
					<rect x="-168.2" y="294.1" width="11.8" height="5.9"/>
					<rect x="-185.9" y="235.2" width="5.9" height="5.9"/>
					<rect x="-233.2" y="317.6" width="5.9" height="5.9"/>
					<rect x="-150.4" y="294.1" width="5.9" height="5.9"/>
					<rect x="-197.7" y="376.5" width="5.9" height="5.9"/>
				</g>
			</g>
		</g>
	</g>
</g>
<g>
	<path class="st1" d="M-264.3-166.8v-101.9c0,0,14.2,2.2,14.2-5.5c0-7.6-14.2-7.2-14.2-7.2v-10.6c0,0,14,3.2,14.6-5.6
		c0.6-8.8-14.6-6.8-14.6-6.8v-56.6c0,0,14.2,2,14.2-10.8s-14.2-11.1-14.2-11.1v-47.7h127.1v46.6c0,0-13.8-0.4-13.8,12.3
		s13.8,11.8,13.8,11.8v20.6h-14.4v11.8h14.4v11.2l-14.4,0.2v12.7l14.4,0.3v136.5L-264.3-166.8z"/>
	<g>
		<g>
			<path class="st2" d="M-161.6-219.4h-60.8V-252h60.8V-219.4z"/>
		</g>
		<g>
			<g>
				<g>
					<path class="st2" d="M-174.6-308.6h-52.1v-64.7h52.1V-308.6z"/>
				</g>
				<g>
					<path d="M-215.1-320.4h28.9v-41.2h-28.9V-320.4z M-209.4-355.7h17.4v29.4h-17.4V-355.7z"/>
					<path d="M-137-382.1h2.9v-50h-133.2v50h2.9c4.8,0,8.7,4,8.7,8.8s-3.9,8.8-8.7,8.8h-2.9v61.8h11.6v5.9h-11.6v17.7h11.6v5.9
						h-11.6v107.4h133.2v-142.7h-11.6v-5.9h11.6v-17.7h-11.6v-5.9h11.6v-26.5h-2.9c-4.8,0-8.7-4-8.7-8.8S-141.8-382.1-137-382.1z
						 M-249.9-426.3h5.8v11.8h-5.8V-426.3z M-238.3-426.3h5.8v11.8h-5.8V-426.3z M-226.7-426.3h5.8v11.8h-5.8V-426.3z M-215.1-426.3
						h5.8v11.8h-5.8V-426.3z M-151.5-171.7h-5.8v-15.5h5.8V-171.7z M-163-171.7h-5.8v-15.5h5.8V-171.7z M-174.6-171.7h-5.8v-15.5
						h5.8V-171.7z M-186.2-171.7h-5.8v-15.5h5.8V-171.7z M-139.9-358.9v15h-11.6v17.7h11.6v5.9h-11.6v17.7h11.6v131h-5.8v-21.4
						h-52.1v21.4h-40.5v-95.7h23.2v-5.9h-5.8v-23.5h-17.4v-23.5h-5.8v29.4h17.4v17.7h-17.4v101.6h-17.4v-95.7h11.6v-17.7h-11.6v-5.9
						h11.6v-17.7h-11.6v-50.3c6.6-1.4,11.6-7.3,11.6-14.4c0-7.1-5-13-11.6-14.4v-38.5h5.8v17.7h52.1v-17.7h40.5v11.8h-23.2v5.9h5.8
						v23.5h17.4v23.5h5.8V-391h-17.4v-17.7h17.4v-17.7h17.4v38.5c-6.6,1.4-11.6,7.3-11.6,14.4C-151.5-366.2-146.5-360.3-139.9-358.9
						z"/>
					<rect x="-215.1" y="-314.5" width="5.8" height="11.8"/>
					<rect x="-203.6" y="-314.5" width="5.8" height="11.8"/>
					<rect x="-192" y="-314.5" width="5.8" height="11.8"/>
					<rect x="-215.1" y="-379.2" width="5.8" height="11.8"/>
					<rect x="-203.6" y="-379.2" width="5.8" height="11.8"/>
					<rect x="-192" y="-379.2" width="5.8" height="11.8"/>
					<rect x="-232.5" y="-332.1" width="11.6" height="5.9"/>
					<rect x="-232.5" y="-343.9" width="11.6" height="5.9"/>
					<rect x="-232.5" y="-355.7" width="11.6" height="5.9"/>
					<rect x="-180.4" y="-332.1" width="11.6" height="5.9"/>
					<rect x="-180.4" y="-343.9" width="11.6" height="5.9"/>
					<rect x="-180.4" y="-355.7" width="11.6" height="5.9"/>
					<rect x="-197.8" y="-414.5" width="5.8" height="5.9"/>
					<rect x="-244.1" y="-332.1" width="5.8" height="5.9"/>
					<rect x="-163" y="-355.7" width="5.8" height="5.9"/>
					<rect x="-209.4" y="-273.3" width="5.8" height="5.9"/>
					<rect x="-232.2" y="-204.5" width="5.8" height="5.9"/>
				</g>
			</g>
		</g>
		<g>
			<path d="M-151.3-209.4h-81V-262h81V-209.4z M-226.3-215.4h69V-256h-69V-215.4z"/>
			<rect x="-212.9" y="-259" width="6" height="46.6"/>
			<rect x="-194.1" y="-258.1" width="6" height="45.7"/>
			<rect x="-175.7" y="-258.1" width="6" height="45.7"/>
			<rect x="-229.3" y="-230.6" width="75" height="6"/>
			<rect x="-229.3" y="-246.2" width="75" height="6"/>
		</g>
		<polygon points="-194.9,-178.4 -232.3,-178.4 -232.3,-193.1 -226.3,-193.1 -226.3,-184.4 -194.9,-184.4 		"/>
	</g>
</g>
<g>
	<path class="st1" d="M135.5,298.3v-34.7c0,0,14.4,2.1,14.4-5.4c0-7.5-14.4-7-14.4-7v-10.4c0,0,14.2,3.2,14.8-5.5
		s-14.8-6.7-14.8-6.7v-55.7c0,0,14.4,2,14.4-10.6s-14.4-11-14.4-11v-47h128.8v45.8c0,0-14-0.4-14,12.1s14,11.6,14,11.6v20.3h-14.6
		v11.6h14.6v11l-14.5,0.2v12.5l14.5,0.3v68.9L135.5,298.3z"/>
	<g>
		<g>
			<g>
				<path class="st2" d="M226.1,225.4h-52.1v-64.7h52.1V225.4z"/>
			</g>
			<g>
				<path d="M185.5,213.6h28.9v-41.2h-28.9V213.6z M191.3,178.3h17.4v29.4h-17.4V178.3z"/>
				<path d="M263.7,151.8h2.9v-50H133.4v50h2.9c4.8,0,8.7,4,8.7,8.8s-3.9,8.8-8.7,8.8h-2.9v61.8H145v5.9h-11.6v17.7H145v5.9h-11.6
					v41h133.2v-76.3H255v-5.9h11.6v-17.7H255v-5.9h11.6v-26.5h-2.9c-4.8,0-8.7-4-8.7-8.8S258.9,151.8,263.7,151.8z M150.8,107.7h5.8
					v11.8h-5.8V107.7z M162.4,107.7h5.8v11.8h-5.8V107.7z M173.9,107.7h5.8v11.8h-5.8V107.7z M185.5,107.7h5.8v11.8h-5.8V107.7z
					 M249.2,295.8h-5.8v-29.3h5.8V295.8z M237.6,295.8h-5.8v-29.3h5.8V295.8z M226.1,295.8h-5.8v-29.3h5.8V295.8z M214.5,295.8h-5.8
					v-29.3h5.8V295.8z M260.8,175.1v15h-11.6v17.7h11.6v5.9h-11.6v17.7h11.6v64.6H255v-35.1h-52.1v35.1h-40.5v-29.3h23.2v-5.9h-5.8
					v-23.5h-17.4v-23.5h-5.8V243h17.4v17.7h-17.4v35.1h-17.4v-29.3h11.6v-17.7h-11.6V243h11.6v-17.7h-11.6v-50.3
					c6.6-1.4,11.6-7.3,11.6-14.4s-5-13-11.6-14.4v-38.5h5.8v17.7h52.1v-17.7h40.5v11.8h-23.2v5.9h5.8v23.5h17.4v23.5h5.8V143h-17.4
					v-17.7h17.4v-17.7h17.4v38.5c-6.6,1.4-11.6,7.3-11.6,14.4S254.2,173.7,260.8,175.1z"/>
				<rect x="185.5" y="219.5" width="5.8" height="11.8"/>
				<rect x="197.1" y="219.5" width="5.8" height="11.8"/>
				<rect x="208.7" y="219.5" width="5.8" height="11.8"/>
				<rect x="185.5" y="154.8" width="5.8" height="11.8"/>
				<rect x="197.1" y="154.8" width="5.8" height="11.8"/>
				<rect x="208.7" y="154.8" width="5.8" height="11.8"/>
				<rect x="168.2" y="201.8" width="11.6" height="5.9"/>
				<rect x="168.2" y="190.1" width="11.6" height="5.9"/>
				<rect x="168.2" y="178.3" width="11.6" height="5.9"/>
				<rect x="220.3" y="201.8" width="11.6" height="5.9"/>
				<rect x="220.3" y="190.1" width="11.6" height="5.9"/>
				<rect x="220.3" y="178.3" width="11.6" height="5.9"/>
				<rect x="202.9" y="119.5" width="5.8" height="5.9"/>
				<rect x="156.6" y="201.8" width="5.8" height="5.9"/>
				<rect x="237.6" y="178.3" width="5.8" height="5.9"/>
				<rect x="191.3" y="260.7" width="5.8" height="5.9"/>
			</g>
		</g>
	</g>
</g>
</svg>
