<?xml version="1.0" encoding="utf-8"?>
<!-- Generator: Adobe Illustrator 23.0.3, SVG Export Plug-In . SVG Version: 6.00 Build 0)  -->
<svg version="1.1" id="Layer_1" xmlns="http://www.w3.org/2000/svg" xmlns:xlink="http://www.w3.org/1999/xlink" x="0px" y="0px"
	 width="400px" height="400px" viewBox="0 0 400 400" style="enable-background:new 0 0 400 400;" xml:space="preserve">
<style type="text/css">
	.st0{fill:#F0BC5E;}
	.st1{fill:#B01AFF;}
	.st2{fill:#EFEFEF;}
</style>
<g>
	<g>
		<g>
			<path class="st0" d="M-359.5,240h-53.2v-64.7h53.2V240z"/>
		</g>
		<g>
			<path d="M-400.9,228.2h29.5V187h-29.5V228.2z M-394.9,192.9h17.7v29.4h-17.7V192.9z"/>
			<path d="M-321.1,166.4h3v-50H-454v50h3c4.9,0,8.9,4,8.9,8.8s-4,8.8-8.9,8.8h-3v61.8h11.8v5.9H-454v17.7h11.8v5.9H-454v23.5h135.9
				V240h-11.8v-5.9h11.8v-17.7h-11.8v-5.9h11.8v-26.5h-3c-4.9,0-8.9-4-8.9-8.8S-326,166.4-321.1,166.4z M-436.3,122.3h5.9v11.8h-5.9
				V122.3z M-424.5,122.3h5.9v11.8h-5.9V122.3z M-412.7,122.3h5.9v11.8h-5.9V122.3z M-400.9,122.3h5.9v11.8h-5.9V122.3z
				 M-335.8,292.9h-5.9v-11.8h5.9V292.9z M-347.7,292.9h-5.9v-11.8h5.9V292.9z M-359.5,292.9h-5.9v-11.8h5.9V292.9z M-371.3,292.9
				h-5.9v-11.8h5.9V292.9z M-324,189.7v15h-11.8v17.7h11.8v5.9h-11.8v17.7h11.8v47.1h-5.9v-17.7h-53.2v17.7h-41.4v-11.8h23.6v-5.9
				h-5.9v-23.5h-17.7v-23.5h-5.9v29.4h17.7v17.7h-17.7v17.7h-17.7v-11.8h11.8v-17.7h-11.8v-5.9h11.8V240h-11.8v-50.3
				c6.7-1.4,11.8-7.3,11.8-14.4s-5.1-13-11.8-14.4v-38.5h5.9V140h53.2v-17.7h41.4v11.8h-23.6v5.9h5.9v23.5h17.7V187h5.9v-29.4h-17.7
				V140h17.7v-17.7h17.7v38.5c-6.7,1.4-11.8,7.3-11.8,14.4S-330.8,188.3-324,189.7z"/>
			<rect x="-400.9" y="234.1" width="5.9" height="11.8"/>
			<rect x="-389" y="234.1" width="5.9" height="11.8"/>
			<rect x="-377.2" y="234.1" width="5.9" height="11.8"/>
			<rect x="-400.9" y="169.4" width="5.9" height="11.8"/>
			<rect x="-389" y="169.4" width="5.9" height="11.8"/>
			<rect x="-377.2" y="169.4" width="5.9" height="11.8"/>
			<rect x="-418.6" y="216.5" width="11.8" height="5.9"/>
			<rect x="-418.6" y="204.7" width="11.8" height="5.9"/>
			<rect x="-418.6" y="192.9" width="11.8" height="5.9"/>
			<rect x="-365.4" y="216.5" width="11.8" height="5.9"/>
			<rect x="-365.4" y="204.7" width="11.8" height="5.9"/>
			<rect x="-365.4" y="192.9" width="11.8" height="5.9"/>
			<rect x="-383.1" y="134.1" width="5.9" height="5.9"/>
			<rect x="-430.4" y="216.5" width="5.9" height="5.9"/>
			<rect x="-347.7" y="192.9" width="5.9" height="5.9"/>
			<rect x="-394.9" y="275.3" width="5.9" height="5.9"/>
		</g>
	</g>
</g>
<rect x="1104.5" y="199.8" class="st1" width="133.2" height="199.7"/>
<text transform="matrix(1 0 0 1 911.4365 85.3687)" style="font-family:'MyriadPro-Regular'; font-size:54.7051px;">12x24</text>
<text transform="matrix(1 0 0 1 425.5127 -276.0955)" style="font-family:'MyriadPro-Regular'; font-size:54.7051px;">12x36</text>
<text transform="matrix(1 0 0 1 1100.0703 151.9478)" style="font-family:'MyriadPro-Regular'; font-size:54.7051px;">12x18</text>
<text transform="matrix(1 0 0 1 1388.5693 85.3687)" style="font-family:'MyriadPro-Regular'; font-size:54.7051px;">18x24</text>
<rect x="1359.7" y="133.2" class="st1" width="199.7" height="266.3"/>
<g>
	<path class="st2" d="M-123.8,400h-133v-20.4l15.2-0.3l-0.1-12l-15.2-0.3v-10.8l15-0.1v-12l-15-0.1v-55.1c0,0,14.7,1.1,14.7-11.3
		c0-12.4-14.7-13.8-14.7-13.8V161.8c0,0,14.9,2.2,14.9-5.5s-14.9-7.2-14.9-7.2v-10.6c0,0,14.6,3.2,15.2-5.6
		c0.6-8.8-15.2-6.8-15.2-6.8V69.6c0,0,14.9,2,14.9-10.8s-14.9-11.1-14.9-11.1V0h133v46.6c0,0-14.4-0.4-14.4,12.3
		s14.4,11.8,14.4,11.8v20.6l-15,0V103h15v11.2l-15,0.2V127l15,0.3v136.5c0,0-14.5,1.7-14.5,12.6s14.5,11.8,14.5,11.8v19.9
		c0,0-14.2-1.2-14.9,6.5c-0.7,7.7,14.9,6.6,14.9,6.6V332c0,0-14.8-1.5-14.8,6.4c0,7.8,14.8,6.5,14.8,6.5V400z"/>
	<g>
		<g>
			<g>
				<g>
					<path class="st0" d="M-162.3,123.6h-53.2V58.8h53.2V123.6z"/>
				</g>
				<g>
					<path d="M-203.6,111.8h29.5V70.6h-29.5V111.8z M-197.7,76.5h17.7v29.4h-17.7V76.5z"/>
					<path d="M-126.8,50h3V0h-133v50h3c4.9,0,8.9,4,8.9,8.8s-4,8.8-8.9,8.8h-3v61.8h11.8v5.9h-11.8V153h11.8v5.9h-11.8v48.8h133
						v-84.1h-11.8v-5.9h11.8V100h-11.8v-5.9h11.8V67.7h-3c-4.9,0-8.9-4-8.9-8.8S-131.7,50-126.8,50z M-239.1,5.9h5.9v11.8h-5.9V5.9z
						 M-227.3,5.9h5.9v11.8h-5.9V5.9z M-215.4,5.9h5.9v11.8h-5.9V5.9z M-203.6,5.9h5.9v11.8h-5.9V5.9z M-141.6,201.8h-3v-37h3V201.8
						z M-150.4,201.8h-5.9v-37h5.9V201.8z M-162.3,201.8h-5.9v-37h5.9V201.8z M-174.1,201.8h-5.9v-37h5.9V201.8z M-129.8,73.3v15
						h-11.8v17.7h11.8v5.9h-11.8v17.7h11.8v72.3h-5.9v-42.9h-50.2v42.9h-41.4v-37h23.6v-5.9h-5.9v-23.5h-17.7v-23.5h-5.9v29.4h17.7
						v17.7h-17.7v42.9h-17.7v-37h11.8v-17.7h-11.8v-5.9h11.8v-17.7h-11.8V73.3c6.7-1.4,11.8-7.3,11.8-14.4s-5.1-13-11.8-14.4V5.9
						h5.9v17.7h53.2V5.9h41.4v11.8h-23.6v5.9h5.9v23.5h17.7v23.5h5.9V41.2h-17.7V23.5h17.7V5.9h14.8v38.5
						c-6.7,1.4-11.8,7.3-11.8,14.4S-136.5,71.9-129.8,73.3z"/>
					<rect x="-203.6" y="117.7" width="5.9" height="11.8"/>
					<rect x="-191.8" y="117.7" width="5.9" height="11.8"/>
					<rect x="-180" y="117.7" width="5.9" height="11.8"/>
					<rect x="-203.6" y="53" width="5.9" height="11.8"/>
					<rect x="-191.8" y="53" width="5.9" height="11.8"/>
					<rect x="-180" y="53" width="5.9" height="11.8"/>
					<rect x="-221.4" y="100" width="11.8" height="5.9"/>
					<rect x="-221.4" y="88.3" width="11.8" height="5.9"/>
					<rect x="-221.4" y="76.5" width="11.8" height="5.9"/>
					<rect x="-168.2" y="100" width="11.8" height="5.9"/>
					<rect x="-168.2" y="88.3" width="11.8" height="5.9"/>
					<rect x="-168.2" y="76.5" width="11.8" height="5.9"/>
					<rect x="-185.9" y="17.7" width="5.9" height="5.9"/>
					<rect x="-233.2" y="100" width="5.9" height="5.9"/>
					<rect x="-150.4" y="76.5" width="5.9" height="5.9"/>
					<rect x="-197.7" y="158.9" width="5.9" height="5.9"/>
				</g>
			</g>
		</g>
		<g>
			<g>
				<g>
					<path class="st0" d="M-162.3,341.2h-53.2v-64.7h53.2V341.2z"/>
				</g>
				<g>
					<path d="M-203.6,329.4h29.5v-41.2h-29.5V329.4z M-197.7,294.1h17.7v29.4h-17.7V294.1z"/>
					<path d="M-126.8,267.6h3v-65.9h-133v65.9h3c4.9,0,8.9,4,8.9,8.8s-4,8.8-8.9,8.8h-3V347h11.8v5.9h-11.8v17.7h11.8v5.9h-11.8V400
						h133v-58.8h-11.8v-5.9h11.8v-17.7h-11.8v-5.9h11.8v-26.5h-3c-4.9,0-8.9-4-8.9-8.8S-131.7,267.6-126.8,267.6z M-239.1,207.6h5.9
						v27.6h-5.9V207.6z M-227.3,207.6h5.9v27.6h-5.9V207.6z M-215.4,207.6h5.9v27.6h-5.9V207.6z M-203.6,207.6h5.9v27.6h-5.9V207.6z
						 M-141.6,394.1h-3v-11.8h3V394.1z M-150.4,394.1h-5.9v-11.8h5.9V394.1z M-162.3,394.1h-5.9v-11.8h5.9V394.1z M-174.1,394.1
						h-5.9v-11.8h5.9V394.1z M-129.8,290.8v15h-11.8v17.7h11.8v5.9h-11.8V347h11.8v47.1h-5.9v-17.7h-50.2v17.7h-41.4v-11.8h23.6
						v-5.9h-5.9v-23.5h-17.7v-23.5h-5.9v29.4h17.7v17.7h-17.7v17.7h-17.7v-11.8h11.8v-17.7h-11.8v-5.9h11.8v-17.7h-11.8v-50.3
						c6.7-1.4,11.8-7.3,11.8-14.4c0-7.1-5.1-13-11.8-14.4v-54.4h5.9v33.5h53.2v-33.5h41.4v27.6h-23.6v5.9h5.9v23.5h17.7v23.5h5.9
						v-29.4h-17.7v-17.7h17.7v-33.5h14.8V262c-6.7,1.4-11.8,7.3-11.8,14.4C-141.6,283.5-136.5,289.5-129.8,290.8z"/>
					<rect x="-203.6" y="335.3" width="5.9" height="11.8"/>
					<rect x="-191.8" y="335.3" width="5.9" height="11.8"/>
					<rect x="-180" y="335.3" width="5.9" height="11.8"/>
					<rect x="-203.6" y="270.6" width="5.9" height="11.8"/>
					<rect x="-191.8" y="270.6" width="5.9" height="11.8"/>
					<rect x="-180" y="270.6" width="5.9" height="11.8"/>
					<rect x="-221.4" y="317.6" width="11.8" height="5.9"/>
					<rect x="-221.4" y="305.9" width="11.8" height="5.9"/>
					<rect x="-221.4" y="294.1" width="11.8" height="5.9"/>
					<rect x="-168.2" y="317.6" width="11.8" height="5.9"/>
					<rect x="-168.2" y="305.9" width="11.8" height="5.9"/>
					<rect x="-168.2" y="294.1" width="11.8" height="5.9"/>
					<rect x="-185.9" y="235.2" width="5.9" height="5.9"/>
					<rect x="-233.2" y="317.6" width="5.9" height="5.9"/>
					<rect x="-150.4" y="294.1" width="5.9" height="5.9"/>
					<rect x="-197.7" y="376.5" width="5.9" height="5.9"/>
				</g>
			</g>
		</g>
	</g>
</g>
<g>
	<path class="st2" d="M136.4,332.2V230.3c0,0,14.2,2.2,14.2-5.5c0-7.6-14.2-7.2-14.2-7.2v-10.6c0,0,14,3.2,14.6-5.6
		c0.6-8.8-14.6-6.8-14.6-6.8v-56.6c0,0,14.2,2,14.2-10.8s-14.2-11.1-14.2-11.1V68.5h127.1V115c0,0-13.8-0.4-13.8,12.3
		s13.8,11.8,13.8,11.8v20.6h-14.4v11.8h14.4v11.2l-14.4,0.2v12.7l14.4,0.3v136.5L136.4,332.2z"/>
	<g>
		<g>
			<path class="st0" d="M239,279.6h-60.8V247H239V279.6z"/>
		</g>
		<g>
			<g>
				<g>
					<path class="st0" d="M226.1,190.4h-52.1v-64.7h52.1V190.4z"/>
				</g>
				<g>
					<path d="M185.5,178.6h28.9v-41.2h-28.9V178.6z M191.3,143.3h17.4v29.4h-17.4V143.3z"/>
					<path d="M263.7,116.9h2.9v-50H133.4v50h2.9c4.8,0,8.7,4,8.7,8.8c0,4.9-3.9,8.8-8.7,8.8h-2.9v61.8H145v5.9h-11.6v17.7H145v5.9
						h-11.6v107.4h133.2V190.4H255v-5.9h11.6v-17.7H255V161h11.6v-26.5h-2.9c-4.8,0-8.7-4-8.7-8.8
						C255,120.8,258.9,116.9,263.7,116.9z M150.8,72.7h5.8v11.8h-5.8V72.7z M162.4,72.7h5.8v11.8h-5.8V72.7z M173.9,72.7h5.8v11.8
						h-5.8V72.7z M185.5,72.7h5.8v11.8h-5.8V72.7z M249.2,327.3h-5.8v-15.5h5.8V327.3z M237.6,327.3h-5.8v-15.5h5.8V327.3z
						 M226.1,327.3h-5.8v-15.5h5.8V327.3z M214.5,327.3h-5.8v-15.5h5.8V327.3z M260.8,140.1v15h-11.6v17.7h11.6v5.9h-11.6v17.7h11.6
						v131H255v-21.4h-52.1v21.4h-40.5v-95.7h23.2v-5.9h-5.8v-23.5h-17.4v-23.5h-5.8v29.4h17.4v17.7h-17.4v101.6h-17.4v-95.7h11.6
						v-17.7h-11.6v-5.9h11.6v-17.7h-11.6v-50.3c6.6-1.4,11.6-7.3,11.6-14.4c0-7.1-5-13-11.6-14.4V72.7h5.8v17.7h52.1V72.7h40.5v11.8
						h-23.2v5.9h5.8v23.5h17.4v23.5h5.8V108h-17.4V90.4h17.4V72.7h17.4v38.5c-6.6,1.4-11.6,7.3-11.6,14.4
						C249.2,132.8,254.2,138.7,260.8,140.1z"/>
					<rect x="185.5" y="184.5" width="5.8" height="11.8"/>
					<rect x="197.1" y="184.5" width="5.8" height="11.8"/>
					<rect x="208.7" y="184.5" width="5.8" height="11.8"/>
					<rect x="185.5" y="119.8" width="5.8" height="11.8"/>
					<rect x="197.1" y="119.8" width="5.8" height="11.8"/>
					<rect x="208.7" y="119.8" width="5.8" height="11.8"/>
					<rect x="168.2" y="166.9" width="11.6" height="5.9"/>
					<rect x="168.2" y="155.1" width="11.6" height="5.9"/>
					<rect x="168.2" y="143.3" width="11.6" height="5.9"/>
					<rect x="220.3" y="166.9" width="11.6" height="5.9"/>
					<rect x="220.3" y="155.1" width="11.6" height="5.9"/>
					<rect x="220.3" y="143.3" width="11.6" height="5.9"/>
					<rect x="202.9" y="84.5" width="5.8" height="5.9"/>
					<rect x="156.6" y="166.9" width="5.8" height="5.9"/>
					<rect x="237.6" y="143.3" width="5.8" height="5.9"/>
					<rect x="191.3" y="225.7" width="5.8" height="5.9"/>
					<rect x="168.4" y="294.5" width="5.8" height="5.9"/>
				</g>
			</g>
		</g>
		<g>
			<path d="M249.4,289.6h-81V237h81V289.6z M174.3,283.6h69V243h-69V283.6z"/>
			<rect x="187.7" y="240" width="6" height="46.6"/>
			<rect x="206.6" y="240.9" width="6" height="45.7"/>
			<rect x="225" y="240.9" width="6" height="45.7"/>
			<rect x="171.3" y="268.4" width="75" height="6"/>
			<rect x="171.3" y="252.8" width="75" height="6"/>
		</g>
		<polygon points="205.8,320.6 168.3,320.6 168.3,305.9 174.3,305.9 174.3,314.6 205.8,314.6 		"/>
	</g>
</g>
</svg>
