<?xml version="1.0" encoding="utf-8"?>
<!-- Generator: Adobe Illustrator 23.0.3, SVG Export Plug-In . SVG Version: 6.00 Build 0)  -->
<svg version="1.1" id="Layer_1" xmlns="http://www.w3.org/2000/svg" xmlns:xlink="http://www.w3.org/1999/xlink" x="0px" y="0px"
	 width="400px" height="400px" viewBox="0 0 400 400" style="enable-background:new 0 0 400 400;" xml:space="preserve">
<style type="text/css">
	.st0{fill:#F0BC5E;}
	.st1{fill:#B01AFF;}
	.st2{fill:#EFEFEF;}
</style>
<g>
	<g>
		<g>
			<path class="st0" d="M-359.5,240h-53.2v-64.7h53.2V240z"/>
		</g>
		<g>
			<path d="M-400.9,228.2h29.5V187h-29.5V228.2z M-394.9,192.9h17.7v29.4h-17.7V192.9z"/>
			<path d="M-321.1,166.4h3v-50H-454v50h3c4.9,0,8.9,4,8.9,8.8s-4,8.8-8.9,8.8h-3v61.8h11.8v5.9H-454v17.7h11.8v5.9H-454v23.5h135.9
				V240h-11.8v-5.9h11.8v-17.7h-11.8v-5.9h11.8v-26.5h-3c-4.9,0-8.9-4-8.9-8.8S-326,166.4-321.1,166.4z M-436.3,122.3h5.9v11.8h-5.9
				V122.3z M-424.5,122.3h5.9v11.8h-5.9V122.3z M-412.7,122.3h5.9v11.8h-5.9V122.3z M-400.9,122.3h5.9v11.8h-5.9V122.3z
				 M-335.8,292.9h-5.9v-11.8h5.9V292.9z M-347.7,292.9h-5.9v-11.8h5.9V292.9z M-359.5,292.9h-5.9v-11.8h5.9V292.9z M-371.3,292.9
				h-5.9v-11.8h5.9V292.9z M-324,189.7v15h-11.8v17.7h11.8v5.9h-11.8v17.7h11.8v47.1h-5.9v-17.7h-53.2v17.7h-41.4v-11.8h23.6v-5.9
				h-5.9v-23.5h-17.7v-23.5h-5.9v29.4h17.7v17.7h-17.7v17.7h-17.7v-11.8h11.8v-17.7h-11.8v-5.9h11.8V240h-11.8v-50.3
				c6.7-1.4,11.8-7.3,11.8-14.4s-5.1-13-11.8-14.4v-38.5h5.9V140h53.2v-17.7h41.4v11.8h-23.6v5.9h5.9v23.5h17.7V187h5.9v-29.4h-17.7
				V140h17.7v-17.7h17.7v38.5c-6.7,1.4-11.8,7.3-11.8,14.4S-330.8,188.3-324,189.7z"/>
			<rect x="-400.9" y="234.1" width="5.9" height="11.8"/>
			<rect x="-389" y="234.1" width="5.9" height="11.8"/>
			<rect x="-377.2" y="234.1" width="5.9" height="11.8"/>
			<rect x="-400.9" y="169.4" width="5.9" height="11.8"/>
			<rect x="-389" y="169.4" width="5.9" height="11.8"/>
			<rect x="-377.2" y="169.4" width="5.9" height="11.8"/>
			<rect x="-418.6" y="216.5" width="11.8" height="5.9"/>
			<rect x="-418.6" y="204.7" width="11.8" height="5.9"/>
			<rect x="-418.6" y="192.9" width="11.8" height="5.9"/>
			<rect x="-365.4" y="216.5" width="11.8" height="5.9"/>
			<rect x="-365.4" y="204.7" width="11.8" height="5.9"/>
			<rect x="-365.4" y="192.9" width="11.8" height="5.9"/>
			<rect x="-383.1" y="134.1" width="5.9" height="5.9"/>
			<rect x="-430.4" y="216.5" width="5.9" height="5.9"/>
			<rect x="-347.7" y="192.9" width="5.9" height="5.9"/>
			<rect x="-394.9" y="275.3" width="5.9" height="5.9"/>
		</g>
	</g>
</g>
<rect x="915.9" y="133.2" class="st1" width="133.2" height="266.3"/>
<rect x="1104.5" y="199.8" class="st1" width="133.2" height="199.7"/>
<text transform="matrix(1 0 0 1 911.4365 85.3687)" style="font-family:'MyriadPro-Regular'; font-size:54.7051px;">12x24</text>
<text transform="matrix(1 0 0 1 425.5127 -276.0955)" style="font-family:'MyriadPro-Regular'; font-size:54.7051px;">12x36</text>
<text transform="matrix(1 0 0 1 1100.0703 151.9478)" style="font-family:'MyriadPro-Regular'; font-size:54.7051px;">12x18</text>
<text transform="matrix(1 0 0 1 1388.5693 85.3687)" style="font-family:'MyriadPro-Regular'; font-size:54.7051px;">18x24</text>
<rect x="1359.7" y="133.2" class="st1" width="199.7" height="266.3"/>
<g>
	<path class="st2" d="M265,400H132v-20.4l15.2-0.3l-0.1-12L132,367v-10.8l15-0.1v-12l-15-0.1v-55.1c0,0,14.7,1.1,14.7-11.3
		c0-12.4-14.7-13.8-14.7-13.8V161.8c0,0,14.9,2.2,14.9-5.5s-14.9-7.2-14.9-7.2v-10.6c0,0,14.6,3.2,15.2-5.6
		c0.6-8.8-15.2-6.8-15.2-6.8V69.6c0,0,14.9,2,14.9-10.8S132,47.7,132,47.7V0h133v46.6c0,0-14.4-0.4-14.4,12.3S265,70.6,265,70.6
		v20.6l-15,0V103h15v11.2l-15,0.2V127l15,0.3v136.5c0,0-14.5,1.7-14.5,12.6s14.5,11.8,14.5,11.8v19.9c0,0-14.2-1.2-14.9,6.5
		c-0.7,7.7,14.9,6.6,14.9,6.6V332c0,0-14.8-1.5-14.8,6.4c0,7.8,14.8,6.5,14.8,6.5V400z"/>
	<g>
		<g>
			<g>
				<g>
					<path class="st0" d="M226.6,123.6h-53.2V58.8h53.2V123.6z"/>
				</g>
				<g>
					<path d="M185.2,111.8h29.5V70.6h-29.5V111.8z M191.1,76.5h17.7v29.4h-17.7V76.5z"/>
					<path d="M262.1,50h3V0H132v50h3c4.9,0,8.9,4,8.9,8.8s-4,8.8-8.9,8.8h-3v61.8h11.8v5.9H132V153h11.8v5.9H132v48.8h133v-84.1
						h-11.8v-5.9H265V100h-11.8v-5.9H265V67.7h-3c-4.9,0-8.9-4-8.9-8.8S257.2,50,262.1,50z M149.8,5.9h5.9v11.8h-5.9V5.9z
						 M161.6,5.9h5.9v11.8h-5.9V5.9z M173.4,5.9h5.9v11.8h-5.9V5.9z M185.2,5.9h5.9v11.8h-5.9V5.9z M247.3,201.8h-3v-37h3V201.8z
						 M238.4,201.8h-5.9v-37h5.9V201.8z M226.6,201.8h-5.9v-37h5.9V201.8z M214.8,201.8h-5.9v-37h5.9V201.8z M259.1,73.3v15h-11.8
						v17.7h11.8v5.9h-11.8v17.7h11.8v72.3h-5.9v-42.9H203v42.9h-41.4v-37h23.6v-5.9h-5.9v-23.5h-17.7v-23.5h-5.9v29.4h17.7v17.7
						h-17.7v42.9h-17.7v-37h11.8v-17.7h-11.8v-5.9h11.8v-17.7h-11.8V73.3c6.7-1.4,11.8-7.3,11.8-14.4s-5.1-13-11.8-14.4V5.9h5.9
						v17.7H197V5.9h41.4v11.8h-23.6v5.9h5.9v23.5h17.7v23.5h5.9V41.2h-17.7V23.5h17.7V5.9h14.8v38.5c-6.7,1.4-11.8,7.3-11.8,14.4
						S252.4,71.9,259.1,73.3z"/>
					<rect x="185.2" y="117.7" width="5.9" height="11.8"/>
					<rect x="197" y="117.7" width="5.9" height="11.8"/>
					<rect x="208.9" y="117.7" width="5.9" height="11.8"/>
					<rect x="185.2" y="53" width="5.9" height="11.8"/>
					<rect x="197" y="53" width="5.9" height="11.8"/>
					<rect x="208.9" y="53" width="5.9" height="11.8"/>
					<rect x="167.5" y="100" width="11.8" height="5.9"/>
					<rect x="167.5" y="88.3" width="11.8" height="5.9"/>
					<rect x="167.5" y="76.5" width="11.8" height="5.9"/>
					<rect x="220.7" y="100" width="11.8" height="5.9"/>
					<rect x="220.7" y="88.3" width="11.8" height="5.9"/>
					<rect x="220.7" y="76.5" width="11.8" height="5.9"/>
					<rect x="203" y="17.7" width="5.9" height="5.9"/>
					<rect x="155.7" y="100" width="5.9" height="5.9"/>
					<rect x="238.4" y="76.5" width="5.9" height="5.9"/>
					<rect x="191.1" y="158.9" width="5.9" height="5.9"/>
				</g>
			</g>
		</g>
		<g>
			<g>
				<g>
					<path class="st0" d="M226.6,341.2h-53.2v-64.7h53.2V341.2z"/>
				</g>
				<g>
					<path d="M185.2,329.4h29.5v-41.2h-29.5V329.4z M191.1,294.1h17.7v29.4h-17.7V294.1z"/>
					<path d="M262.1,267.6h3v-65.9H132v65.9h3c4.9,0,8.9,4,8.9,8.8s-4,8.8-8.9,8.8h-3V347h11.8v5.9H132v17.7h11.8v5.9H132V400h133
						v-58.8h-11.8v-5.9H265v-17.7h-11.8v-5.9H265v-26.5h-3c-4.9,0-8.9-4-8.9-8.8S257.2,267.6,262.1,267.6z M149.8,207.6h5.9v27.6
						h-5.9V207.6z M161.6,207.6h5.9v27.6h-5.9V207.6z M173.4,207.6h5.9v27.6h-5.9V207.6z M185.2,207.6h5.9v27.6h-5.9V207.6z
						 M247.3,394.1h-3v-11.8h3V394.1z M238.4,394.1h-5.9v-11.8h5.9V394.1z M226.6,394.1h-5.9v-11.8h5.9V394.1z M214.8,394.1h-5.9
						v-11.8h5.9V394.1z M259.1,290.8v15h-11.8v17.7h11.8v5.9h-11.8V347h11.8v47.1h-5.9v-17.7H203v17.7h-41.4v-11.8h23.6v-5.9h-5.9
						v-23.5h-17.7v-23.5h-5.9v29.4h17.7v17.7h-17.7v17.7h-17.7v-11.8h11.8v-17.7h-11.8v-5.9h11.8v-17.7h-11.8v-50.3
						c6.7-1.4,11.8-7.3,11.8-14.4c0-7.1-5.1-13-11.8-14.4v-54.4h5.9v33.5H197v-33.5h41.4v27.6h-23.6v5.9h5.9v23.5h17.7v23.5h5.9
						v-29.4h-17.7v-17.7h17.7v-33.5h14.8V262c-6.7,1.4-11.8,7.3-11.8,14.4C247.3,283.5,252.4,289.5,259.1,290.8z"/>
					<rect x="185.2" y="335.3" width="5.9" height="11.8"/>
					<rect x="197" y="335.3" width="5.9" height="11.8"/>
					<rect x="208.9" y="335.3" width="5.9" height="11.8"/>
					<rect x="185.2" y="270.6" width="5.9" height="11.8"/>
					<rect x="197" y="270.6" width="5.9" height="11.8"/>
					<rect x="208.9" y="270.6" width="5.9" height="11.8"/>
					<rect x="167.5" y="317.6" width="11.8" height="5.9"/>
					<rect x="167.5" y="305.9" width="11.8" height="5.9"/>
					<rect x="167.5" y="294.1" width="11.8" height="5.9"/>
					<rect x="220.7" y="317.6" width="11.8" height="5.9"/>
					<rect x="220.7" y="305.9" width="11.8" height="5.9"/>
					<rect x="220.7" y="294.1" width="11.8" height="5.9"/>
					<rect x="203" y="235.2" width="5.9" height="5.9"/>
					<rect x="155.7" y="317.6" width="5.9" height="5.9"/>
					<rect x="238.4" y="294.1" width="5.9" height="5.9"/>
					<rect x="191.1" y="376.5" width="5.9" height="5.9"/>
				</g>
			</g>
		</g>
	</g>
</g>
</svg>
